<?xml version="1.0" encoding="UTF-8" standalone="no"?>
<!-- Created with Inkscape (http://www.inkscape.org/) -->

<svg
   xmlns:dc="http://purl.org/dc/elements/1.1/"
   xmlns:cc="http://creativecommons.org/ns#"
   xmlns:rdf="http://www.w3.org/1999/02/22-rdf-syntax-ns#"
   xmlns:svg="http://www.w3.org/2000/svg"
   xmlns="http://www.w3.org/2000/svg"
   xmlns:sodipodi="http://sodipodi.sourceforge.net/DTD/sodipodi-0.dtd"
   xmlns:inkscape="http://www.inkscape.org/namespaces/inkscape"
   width="128"
   height="128"
   id="svg2"
   version="1.1"
   inkscape:version="0.48.4 r9939"
   sodipodi:docname="logo.svg"
   inkscape:export-filename="/home/hughes/dev/css_reloader/logo_32.png"
   inkscape:export-xdpi="22.5"
   inkscape:export-ydpi="22.5">
  <defs
     id="defs4" />
  <sodipodi:namedview
     id="base"
     pagecolor="#ffffff"
     bordercolor="#666666"
     borderopacity="1.0"
     inkscape:pageopacity="0.0"
     inkscape:pageshadow="2"
     inkscape:zoom="4"
     inkscape:cx="52.85504"
     inkscape:cy="66.136881"
     inkscape:document-units="px"
     inkscape:current-layer="layer1"
     showgrid="true"
     inkscape:window-width="1600"
     inkscape:window-height="876"
     inkscape:window-x="0"
     inkscape:window-y="24"
     inkscape:window-maximized="1">
    <inkscape:grid
       type="xygrid"
       id="grid2985"
       empspacing="5"
       visible="true"
       enabled="true"
       snapvisiblegridlinesonly="true" />
  </sodipodi:namedview>
  <metadata
     id="metadata7">
    <rdf:RDF>
      <cc:Work
         rdf:about="">
        <dc:format>image/svg+xml</dc:format>
        <dc:type
           rdf:resource="http://purl.org/dc/dcmitype/StillImage" />
        <dc:title></dc:title>
      </cc:Work>
    </rdf:RDF>
  </metadata>
  <g
     inkscape:label="Layer 1"
     inkscape:groupmode="layer"
     id="layer1"
     transform="translate(0,-924.36218)">
    <path
       inkscape:connector-curvature="0"
       d="m 52.098451,999.0661 c 0.527958,0 0.983958,0.204 1.368,0.612 l 3.816,4.14 c -2.112044,2.616 -4.716042,4.62 -7.812,6.012 -3.072035,1.392 -6.768032,2.088 -11.088,2.088 -3.864023,0 -7.34402,-0.66 -10.44,-1.98 -3.072014,-1.32 -5.700011,-3.156 -7.884,-5.508 -2.184007,-2.352 -3.864005,-5.16 -5.04,-8.424 -1.152003,-3.264 -1.728002,-6.828 -1.728,-10.692 -2e-6,-3.912 0.647997,-7.488 1.944,-10.728 1.295995,-3.264 3.119993,-6.072 5.472,-8.424 2.351988,-2.352 5.159985,-4.176 8.424,-5.472 3.287979,-1.32 6.911975,-1.98 10.872,-1.98 1.854343,0 4.306632,0.1835 6.306,0.632 2.166792,0.486 3.685,1.1775 3.685,1.1775 l 4.815,-7.1775 c 3,8 6.656408,20.59835 6.656408,20.59835 0,0 -11.968908,0.0891 -20.968908,1.08915 l 4.77,-7.4275 c -1.77,-0.51 -3.371436,-0.7002 -5.3355,-0.648 -2.448026,0 -4.704024,0.432 -6.768,1.296 -2.04002,0.84 -3.804018,2.052 -5.292,3.636 -1.464015,1.584 -2.616014,3.516 -3.456,5.796 -0.816013,2.256 -1.224012,4.8 -1.224,7.632 -1.2e-5,2.928 0.407987,5.532 1.224,7.812 0.839986,2.28 1.967985,4.2 3.384,5.76 1.415982,1.56 3.08398,2.76 5.004,3.6 1.919976,0.816 3.983974,1.224 6.192,1.224 1.319971,0 2.50797,-0.072 3.564,-0.216 1.079967,-0.144 2.063966,-0.372 2.952,-0.684 0.911965,-0.312 1.763964,-0.708 2.556,-1.188 0.815962,-0.504 1.619961,-1.116 2.412,-1.836 0.23996,-0.216 0.49196,-0.384 0.756,-0.504 0.26396,-0.144 0.551959,-0.216 0.864,-0.216"
       style="font-size:72px;font-style:normal;font-weight:normal;line-height:125%;letter-spacing:0px;word-spacing:0px;fill:#1e692a;fill-opacity:1;stroke:none;font-family:Sans"
       id="path3835"
       sodipodi:nodetypes="ccccscscscscsscccccccccscscscccccc" />
    <g
       style="font-size:40px;font-style:normal;font-weight:normal;line-height:125%;letter-spacing:0px;word-spacing:0px;fill:#000000;fill-opacity:1;stroke:none;font-family:Sans"
       id="text2987"
       transform="translate(0,4)">
      <path
         inkscape:connector-curvature="0"
         d="m 85.022375,974.23818 c -0.205359,0.4107 -0.448025,0.70004 -0.728,0.868 -0.261358,0.16803 -0.578691,0.25203 -0.952,0.252 -0.373357,3e-5 -0.793357,-0.13997 -1.26,-0.42 -0.466689,-0.29863 -1.017355,-0.6253 -1.652,-0.98 -0.634687,-0.35463 -1.381353,-0.67196 -2.24,-0.952 -0.840018,-0.29863 -1.838684,-0.44796 -2.996,-0.448 -1.045348,4e-5 -1.960014,0.1307 -2.744,0.392 -0.765346,0.2427 -1.418678,0.58804 -1.96,1.036 -0.522677,0.44804 -0.914677,0.98937 -1.176,1.624 -0.261343,0.61603 -0.39201,1.29737 -0.392,2.044 -1e-5,0.95203 0.261323,1.74536 0.784,2.38 0.541322,0.6347 1.250655,1.17603 2.128,1.624 0.87732,0.44803 1.875986,0.84936 2.996,1.204 1.119983,0.35469 2.258649,0.73736 3.416,1.148 1.17598,0.39203 2.323979,0.85869 3.444,1.4 1.119976,0.52269 2.118642,1.19469 2.996,2.016 0.877307,0.80269 1.577306,1.79202 2.1,2.968 0.541305,1.17602 0.811972,2.60402 0.812,4.284 -2.8e-5,1.82935 -0.317361,3.54668 -0.952,5.152 -0.616027,1.58672 -1.530693,2.97732 -2.744,4.17202 -1.19469,1.176 -2.660022,2.1093 -4.396,2.8 -1.736019,0.672 -3.724017,1.008 -5.964,1.008 -1.288013,0 -2.557345,-0.1307 -3.808,-0.392 -1.250676,-0.2427 -2.454675,-0.5974 -3.612,-1.064 -1.138672,-0.4667 -2.212005,-1.0267 -3.22,-1.68 -0.989336,-0.6533 -1.876002,-1.3813 -2.66,-2.184 l 2.184,-3.61202 c 0.20533,-0.26132 0.447996,-0.47599 0.728,-0.644 0.298662,-0.18665 0.625329,-0.27999 0.98,-0.28 0.466661,1e-5 0.970661,0.19601 1.512,0.588 0.541326,0.37334 1.175992,0.79334 1.904,1.26 0.746658,0.46672 1.614657,0.89602 2.604,1.28802 1.007988,0.3733 2.211987,0.56 3.612,0.56 2.14665,0 3.807982,-0.504 4.984,-1.512 1.175979,-1.02668 1.763979,-2.49201 1.764,-4.39602 -2.1e-5,-1.06398 -0.270688,-1.93198 -0.812,-2.604 -0.522687,-0.67198 -1.222686,-1.23198 -2.1,-1.68 -0.877351,-0.46665 -1.876016,-0.85865 -2.996,-1.176 -1.120014,-0.31731 -2.25868,-0.66265 -3.416,-1.036 -1.157344,-0.37331 -2.29601,-0.82131 -3.416,-1.344 -1.120007,-0.52264 -2.118673,-1.20398 -2.996,-2.044 -0.877338,-0.83998 -1.586671,-1.88531 -2.128,-3.136 -0.52267,-1.2693 -0.784003,-2.82797 -0.784,-4.676 -3e-6,-1.47463 0.28933,-2.91197 0.868,-4.312 0.597329,-1.39996 1.455995,-2.64129 2.576,-3.724 1.138659,-1.08263 2.529325,-1.95062 4.172,-2.604 1.642655,-0.65329 3.518653,-0.97996 5.628,-0.98 2.389315,4e-5 4.59198,0.37338 6.608,1.12 2.015976,0.74671 3.733307,1.79204 5.152,3.136 l -1.848,3.556"
         style="font-size:56px;font-variant:normal;font-weight:bold;font-stretch:normal;font-family:Lato;-inkscape-font-specification:Lato"
         id="path3031" />
      <path
         inkscape:connector-curvature="0"
         d="m 115.1005,974.23818 c -0.20536,0.4107 -0.44803,0.70004 -0.728,0.868 -0.26136,0.16803 -0.57869,0.25203 -0.952,0.252 -0.37336,3e-5 -0.79336,-0.13997 -1.26,-0.42 -0.46669,-0.29863 -1.01736,-0.6253 -1.652,-0.98 -0.63469,-0.35463 -1.38135,-0.67196 -2.24,-0.952 -0.84002,-0.29863 -1.83868,-0.44796 -2.996,-0.448 -1.04535,4e-5 -1.96001,0.1307 -2.744,0.392 -0.76535,0.2427 -1.41868,0.58804 -1.96,1.036 -0.52268,0.44804 -0.914677,0.98937 -1.176,1.624 -0.261343,0.61603 -0.39201,1.29737 -0.392,2.044 -1e-5,0.95203 0.261323,1.74536 0.784,2.38 0.54132,0.6347 1.25065,1.17603 2.128,1.624 0.87732,0.44803 1.87599,0.84936 2.996,1.204 1.11998,0.35469 2.25865,0.73736 3.416,1.148 1.17598,0.39203 2.32398,0.85869 3.444,1.4 1.11998,0.52269 2.11864,1.19469 2.996,2.016 0.87731,0.80269 1.57731,1.79202 2.1,2.968 0.54131,1.17602 0.81197,2.60402 0.812,4.284 -3e-5,1.82935 -0.31736,3.54668 -0.952,5.152 -0.61603,1.58672 -1.53069,2.97732 -2.744,4.17202 -1.19469,1.176 -2.66002,2.1093 -4.396,2.8 -1.73602,0.672 -3.72402,1.008 -5.964,1.008 -1.28801,0 -2.55735,-0.1307 -3.808,-0.392 -1.250676,-0.2427 -2.454675,-0.5974 -3.612,-1.064 -1.138672,-0.4667 -2.212005,-1.0267 -3.22,-1.68 -0.989336,-0.6533 -1.876002,-1.3813 -2.66,-2.184 l 2.184,-3.61202 c 0.20533,-0.26132 0.447996,-0.47599 0.728,-0.644 0.298662,-0.18665 0.625329,-0.27999 0.98,-0.28 0.466661,1e-5 0.970661,0.19601 1.512,0.588 0.541326,0.37334 1.175992,0.79334 1.904,1.26 0.746658,0.46672 1.614657,0.89602 2.604,1.28802 1.00799,0.3733 2.21199,0.56 3.612,0.56 2.14665,0 3.80798,-0.504 4.984,-1.512 1.17598,-1.02668 1.76398,-2.49201 1.764,-4.39602 -2e-5,-1.06398 -0.27069,-1.93198 -0.812,-2.604 -0.52269,-0.67198 -1.22269,-1.23198 -2.1,-1.68 -0.87735,-0.46665 -1.87602,-0.85865 -2.996,-1.176 -1.12001,-0.31731 -2.25868,-0.66265 -3.416,-1.036 -1.15734,-0.37331 -2.29601,-0.82131 -3.416,-1.344 -1.120007,-0.52264 -2.118673,-1.20398 -2.996,-2.044 -0.877338,-0.83998 -1.586671,-1.88531 -2.128,-3.136 -0.52267,-1.2693 -0.784003,-2.82797 -0.784,-4.676 -3e-6,-1.47463 0.28933,-2.91197 0.868,-4.312 0.597329,-1.39996 1.455995,-2.64129 2.576,-3.724 1.138659,-1.08263 2.529325,-1.95062 4.172,-2.604 1.64265,-0.65329 3.51865,-0.97996 5.628,-0.98 2.38932,4e-5 4.59198,0.37338 6.608,1.12 2.01598,0.74671 3.73331,1.79204 5.152,3.136 l -1.848,3.556"
         style="font-size:56px;font-variant:normal;font-weight:bold;font-stretch:normal;font-family:Lato;-inkscape-font-specification:Lato"
         id="path3033" />
    </g>
  </g>
</svg>
